# xmcd
#
# Track frame offsets:
#	150
#	23086
#	44079
#	66439
#	87199
#	112983
#	137119
#	161255
#	183751
#	209759
#	232401
#	257831
#	279094
#	309000
#
# Disc length: 4408 seconds
#
# Revision: 0
# Processed by: cddbd v1.4PL0 Copyright (c) Steve Scherf et al.
# Submitted via: dBpowerAMP V4.0
#
DISCID=c211360e
DTITLE=Quang Dung - Anh se den ... giac mo buon
DYEAR=1900
DGENRE=
TTITLE0=Dem thay ta la thac do
TTITLE1=Con mai noi day
TTITLE2=Giac mo buon
TTITLE3=Nguoi di nhu nang phai
TTITLE4=Nguoi qua bong toi
TTITLE5=Chiec la thu phai
TTITLE6=Anh se den
TTITLE7=Hoai cam
TTITLE8=Tim bong
TTITLE9=Moi dai kho, mot toi
TTITLE10=Chi rieng minh anh
TTITLE11=Vi do la em
TTITLE12=Ngay cuoi ben em
TTITLE13=Ben doi co em
EXTD=
EXTT0=
EXTT1=
EXTT2=
EXTT3=
EXTT4=
EXTT5=
EXTT6=
EXTT7=
EXTT8=
EXTT9=
EXTT10=
EXTT11=
EXTT12=
EXTT13=
PLAYORDER=
